<svg width="9" height="7" viewBox="0 0 9 7" fill="none" xmlns="http://www.w3.org/2000/svg">
<path d="M5.718 3.30288H3.20855L3.21201 4.04507H4.90403C4.70314 4.94822 4.0866 5.50262 3.25704 5.50262C2.16944 5.50262 1.28793 4.59232 1.28793 3.4692C1.28793 2.34608 2.16944 1.43578 3.25704 1.43578C3.77486 1.43578 4.2442 1.64145 4.59576 1.97767L5.15169 1.48407C4.66504 0.988678 3.99654 0.682861 3.25877 0.682861C1.76765 0.682861 0.560547 1.93117 0.560547 3.4692C0.560547 5.00902 1.76938 6.25554 3.25877 6.25554C4.68928 6.25554 5.7232 5.12885 5.7232 3.58903L5.718 3.30288Z" fill="white"/>
<path d="M8.75533 3.33338H7.71968V2.26392H7.05984V3.33338H6.02246V4.01656H7.05984V5.08603H7.71968V4.01656H8.75533V3.33338Z" fill="white"/>
</svg>
