<svg width="10" height="9" viewBox="0 0 10 9" fill="none" xmlns="http://www.w3.org/2000/svg">
<path d="M7.19321 3.08246C7.45794 3.08246 7.67255 2.86785 7.67255 2.60312C7.67255 2.33839 7.45794 2.12378 7.19321 2.12378C6.92848 2.12378 6.71387 2.33839 6.71387 2.60312C6.71387 2.86785 6.92848 3.08246 7.19321 3.08246Z" fill="white"/>
<path d="M5.05796 2.73853C3.94644 2.73853 3.04102 3.64395 3.04102 4.75547C3.04102 5.86698 3.94644 6.77241 5.05796 6.77241C6.16948 6.77241 7.07489 5.86698 7.07489 4.75547C7.07489 3.64395 6.16948 2.73853 5.05796 2.73853ZM5.05796 6.04992C4.34474 6.04992 3.76582 5.471 3.76582 4.75778C3.76582 4.04456 4.34474 3.46564 5.05796 3.46564C5.77118 3.46564 6.35009 4.04456 6.35009 4.75778C6.35009 5.471 5.77118 6.04992 5.05796 6.04992Z" fill="white"/>
<path d="M6.66033 8.85357H3.38831C2.03133 8.85357 0.926758 7.749 0.926758 6.39202V3.12C0.926758 1.76302 2.03133 0.658447 3.38831 0.658447H6.66033C8.01731 0.658447 9.12188 1.76302 9.12188 3.12V6.39202C9.11957 7.749 8.01731 8.85357 6.66033 8.85357ZM3.38831 1.42956C2.45741 1.42956 1.69788 2.18678 1.69788 3.12V6.39202C1.69788 7.32292 2.45509 8.08245 3.38831 8.08245H6.66033C7.59355 8.08245 8.35076 7.32523 8.35076 6.39202V3.12C8.35076 2.1891 7.59355 1.42956 6.66033 1.42956H3.38831Z" fill="white"/>
</svg>
