<svg width="140" height="102" viewBox="0 0 140 102" fill="none" xmlns="http://www.w3.org/2000/svg">
<path opacity="0.2" d="M64.6574 75.4386C64.8198 79.0388 64.1472 82.6288 62.6875 85.953C61.2278 89.2773 59.0168 92.2541 56.2121 94.6715L56.1899 94.6885C50.3839 99.5933 42.8226 102.186 35.0677 101.932L35.1165 101.932C30.429 102.173 25.7433 101.429 21.3921 99.7501C17.0409 98.0717 13.131 95.5009 9.94015 92.2204L9.92241 92.2035C3.52537 84.971 0.262556 75.6871 0.798428 66.2427L0.793988 66.3314C0.4967 56.5234 2.41004 46.7687 6.40499 37.725L6.22756 38.1772C9.41734 31.0875 13.8412 24.5622 19.3125 18.8767L19.2637 18.9274C23.7862 14.2529 29.0265 10.2589 34.806 7.08163L35.1253 6.92104C39.4965 4.51843 44.0584 2.44554 48.7692 0.721359L49.4611 0.497383L63.3622 22.8534C57.5856 25.074 52.5152 28.6889 48.6494 33.3425L48.5917 33.4144C44.7426 37.7829 42.3283 43.1344 41.6501 48.8016L41.6368 48.9368C44.6616 49.009 47.6364 49.6893 50.366 50.9333C53.0957 52.1772 55.5187 53.9566 57.4762 56.155L57.5028 56.1846C62.48 61.4647 65.0547 68.4107 64.6618 75.4978L64.6663 75.4344L64.6574 75.4386ZM139.832 75.4386C139.992 79.0389 139.317 82.6285 137.857 85.9526C136.397 89.2766 134.186 92.2534 131.382 94.6715L131.36 94.6884C125.555 99.5951 117.993 102.188 110.237 101.932L110.286 101.932C105.599 102.175 100.912 101.43 96.5611 99.7517C92.2097 98.0732 88.2999 95.5018 85.1098 92.2204L85.0921 92.1993C78.6924 84.9665 75.4293 75.6803 75.9681 66.2342L75.9637 66.3229C75.6664 56.515 77.5797 46.7603 81.5747 37.7165L81.3973 38.1687C84.5855 31.0793 89.0079 24.5539 94.4778 18.8682L94.429 18.9189C98.953 14.2444 104.195 10.2504 109.976 7.07317L110.295 6.91258C114.665 4.50828 119.227 2.43533 123.939 0.712907L124.631 0.488931L138.527 22.8449C132.75 25.0683 127.68 28.6861 123.815 33.3425L123.757 33.4144C119.908 37.7829 117.494 43.1344 116.815 48.8016L116.802 48.9368C119.826 49.0086 122.799 49.6888 125.528 50.9328C128.256 52.1768 130.677 53.9564 132.633 56.155L132.659 56.1845C137.642 61.4606 140.222 68.4059 139.832 75.4936L139.836 75.4302L139.832 75.4386Z" fill="url(#paint0_linear_331_3378)"/>
<defs>
<linearGradient id="paint0_linear_331_3378" x1="70.3058" y1="101.977" x2="70.3058" y2="0.488928" gradientUnits="userSpaceOnUse">
<stop offset="0.348958" stop-color="#C07F22"/>
<stop offset="0.895833" stop-color="#FFFEFC" stop-opacity="0.1"/>
</linearGradient>
</defs>
</svg>
