<svg width="34" height="34" viewBox="0 0 34 34" fill="none" xmlns="http://www.w3.org/2000/svg">
<path d="M16.2926 22.9595C16.6831 23.35 17.3163 23.35 17.7068 22.9595L18.6259 22.0404C19.0164 21.6498 19.0164 21.0167 18.6259 20.6261L16.6663 18.6666H22.6663C23.2186 18.6666 23.6663 18.2189 23.6663 17.6666V16.3333C23.6663 15.781 23.2186 15.3333 22.6663 15.3333H16.6663L18.6259 13.3737C19.0164 12.9832 19.0164 12.35 18.6259 11.9595L17.7068 11.0404C17.3163 10.6498 16.6831 10.6498 16.2926 11.0404L11.0401 16.2928C10.6496 16.6833 10.6496 17.3165 11.0401 17.707L16.2926 22.9595ZM16.9997 33.6666C14.6941 33.6666 12.5275 33.2288 10.4997 32.3533C8.4719 31.4777 6.70801 30.2905 5.20801 28.7916C3.70801 27.2916 2.52079 25.5277 1.64634 23.4999C0.771897 21.4721 0.334119 19.3055 0.333008 16.9999C0.333008 14.6944 0.770786 12.5277 1.64634 10.4999C2.5219 8.47214 3.70912 6.70825 5.20801 5.20825C6.70801 3.70825 8.4719 2.52103 10.4997 1.64659C12.5275 0.772141 14.6941 0.334363 16.9997 0.333252C19.3052 0.333252 21.4719 0.77103 23.4997 1.64659C25.5275 2.52214 27.2913 3.70936 28.7913 5.20825C30.2913 6.70825 31.4791 8.47214 32.3547 10.4999C33.2302 12.5277 33.6674 14.6944 33.6663 16.9999C33.6663 19.3055 33.2286 21.4721 32.353 23.4999C31.4775 25.5277 30.2902 27.2916 28.7913 28.7916C27.2913 30.2916 25.5275 31.4794 23.4997 32.3549C21.4719 33.2305 19.3052 33.6677 16.9997 33.6666Z" fill="white"/>
</svg>
