<svg width="34" height="34" viewBox="0 0 34 34" fill="none" xmlns="http://www.w3.org/2000/svg">
<path d="M17.2954 11.0555C16.9038 10.6583 16.263 10.6583 15.8713 11.0555L14.9748 11.9646C14.5909 12.354 14.5909 12.9795 14.9748 13.3689L16.9121 15.3334H11.0093C10.457 15.3334 10.0093 15.7811 10.0093 16.3334V17.6667C10.0093 18.219 10.457 18.6667 11.0093 18.6667H16.9121L14.9748 20.6313C14.5909 21.0206 14.5909 21.6462 14.9748 22.0356L15.8713 22.9447C16.263 23.3418 16.9038 23.3418 17.2954 22.9447L22.4651 17.7022C22.849 17.3129 22.849 16.6873 22.4651 16.2979L17.2954 11.0555ZM16.5834 0.333416C18.8569 0.333416 20.9935 0.771194 22.9931 1.64675C24.9927 2.5223 26.7321 3.70952 28.2113 5.20841C29.6904 6.70841 30.8612 8.47231 31.7235 10.5001C32.5858 12.5279 33.0175 14.6945 33.0186 17.0001C33.0186 19.3056 32.5869 21.4723 31.7235 23.5001C30.8601 25.5279 29.6893 27.2917 28.2113 28.7917C26.7321 30.2917 24.9927 31.479 22.9931 32.3534C20.9935 33.2279 18.8569 33.6656 16.5834 33.6667C14.3098 33.6667 12.1733 33.229 10.1736 32.3534C8.17403 31.4779 6.43464 30.2906 4.95548 28.7917C3.47631 27.2917 2.30503 25.5279 1.44164 23.5001C0.578239 21.4723 0.147091 19.3056 0.148186 17.0001C0.148186 14.6945 0.579883 12.5279 1.44328 10.5001C2.30667 8.47231 3.4774 6.70841 4.95548 5.20841C6.43464 3.70841 8.17403 2.52064 10.1736 1.64508C12.1733 0.769527 14.3098 0.332302 16.5834 0.333416Z" fill="white"/>
</svg>
