<svg width="9" height="7" viewBox="0 0 9 7" fill="none" xmlns="http://www.w3.org/2000/svg">
<path d="M8.45517 0.957359C8.19401 1.07222 7.90617 1.14076 7.62595 1.18708C7.75939 1.16485 7.95572 0.931422 8.03388 0.835089C8.15398 0.690589 8.2531 0.525713 8.30839 0.347867C8.31601 0.333046 8.32173 0.316371 8.30648 0.305256C8.28932 0.297846 8.27598 0.301552 8.26264 0.308962C7.95001 0.471987 7.62594 0.590552 7.279 0.673917C7.25041 0.681327 7.22943 0.673918 7.21037 0.657244C7.18177 0.625751 7.15509 0.596109 7.12459 0.572025C6.97972 0.451609 6.8234 0.357128 6.64802 0.288584C6.41736 0.197808 6.16573 0.158905 5.91792 0.173726C5.67582 0.188546 5.43944 0.255238 5.22593 0.364539C5.01052 0.47384 4.8199 0.62575 4.6674 0.807302C4.50917 0.996263 4.39289 1.22042 4.3338 1.45755C4.27661 1.68542 4.28042 1.91143 4.31664 2.143C4.32235 2.1819 4.31854 2.18561 4.28232 2.1819C2.93268 1.98738 1.8137 1.51683 0.906309 0.512745C0.866277 0.468283 0.845298 0.468281 0.812891 0.516448C0.416385 1.0963 0.608925 2.02443 1.10456 2.48202C1.17128 2.54315 1.23799 2.60429 1.31234 2.65986C1.28565 2.66542 0.955864 2.63022 0.660391 2.48202C0.620359 2.45793 0.601293 2.4709 0.597481 2.51536C0.593668 2.57835 0.599398 2.63578 0.608929 2.70247C0.685181 3.28973 1.10265 3.83254 1.67644 4.04373C1.74507 4.07152 1.81941 4.0956 1.89185 4.10857C1.76223 4.13636 1.62687 4.15673 1.25324 4.12709C1.20749 4.11783 1.18843 4.14191 1.20749 4.18452C1.48772 4.92925 2.09583 5.15156 2.54952 5.27754C2.61052 5.28865 2.67152 5.28865 2.73252 5.30162C2.7287 5.30718 2.72489 5.30717 2.72108 5.31273C2.57048 5.53689 2.04816 5.70177 1.80416 5.78514C1.3619 5.93519 0.879616 6.00374 0.412577 5.95928C0.338232 5.94816 0.322979 5.95002 0.302009 5.95928C0.28104 5.97225 0.300112 5.98892 0.322987 6.00744C0.418301 6.06858 0.513607 6.1223 0.612734 6.17418C0.910114 6.32794 1.21893 6.44835 1.543 6.53542C3.21671 6.98375 5.10012 6.65399 6.35636 5.44241C7.3419 4.4902 7.68885 3.17673 7.68885 1.86141C7.68885 1.80954 7.75176 1.78175 7.78798 1.75396C8.04532 1.56685 8.2512 1.34269 8.44374 1.09259C8.48758 1.03702 8.48758 0.987 8.48758 0.966622C8.48758 0.962917 8.48758 0.95921 8.48758 0.95921C8.48948 0.936979 8.48758 0.942538 8.45517 0.957359Z" fill="white"/>
</svg>
